<svg width="512" height="512" viewBox="0 0 512 512" fill="none" xmlns="http://www.w3.org/2000/svg" xmlns:xlink="http://www.w3.org/1999/xlink" class=""><rect id="r4" width="512" height="512" x="0" y="0" rx="0" fill="url(#r5)" stroke="#FFFFFF" stroke-width="0" stroke-opacity="100%" paint-order="stroke"></rect><clipPath id="clip"><use xlink:href="#r4"></use></clipPath><defs><linearGradient id="r5" gradientUnits="userSpaceOnUse" gradientTransform="rotate(45)" style="transform-origin: center center;"><stop stop-color="#82F96B"></stop><stop offset="1" stop-color="#2B967B"></stop></linearGradient><radialGradient id="r6" cx="0" cy="0" r="1" gradientUnits="userSpaceOnUse" gradientTransform="translate(256) rotate(90) scale(512)"><stop stop-color="white"></stop><stop offset="1" stop-color="white" stop-opacity="0"></stop></radialGradient></defs><svg xmlns="http://www.w3.org/2000/svg" width="352" height="352" viewBox="0 0 512 512" x="80" y="80" alignment-baseline="middle" style="color: rgb(255, 255, 255);"><path fill="currentColor" d="M261.1 24.77c-57.3-.46-64.8 64.29-64.8 64.29c21.2-1.33 21.7-42.45 48.4-39.88c-21.8 28.91-11.1 71.72-11.1 71.72l12 5.3l16.7-5.6s23.2-30.71 16.7-63.98c28.1 26.17 1.5 49.68 35.5 81.38c0 0 17-35.1 5-66.84c29.7 27.34 18.5 73.64 61.1 83.34c-32.3-35.6-1.5-112.71-107.3-128.73c-4.3-.65-8.3-.97-12.2-1zM158.6 88.4c-133.51-.41-98.66 82.7-104.69 153.1c33.27-25.6 5.46-89 36.44-112.8c-11.95 21 3.71 72.3 3.71 72.3C128 173.4 83.24 106.8 172 88.7c-4.7-.19-9.1-.29-13.4-.3zm42.8 49.5c-38.6 0-71.1 22-70.1 57.9c-60.7 23.8-34.4 141.8-34.4 217.7c40.8-40.7 1.41-134.7 33.6-166.9L143 352.7c32.2-35.7-1.8-109.8 29.1-144l7.9 75c24.3-29-1.4-113.9 54.5-140.5c-11.1-3.6-22.4-5.4-33.1-5.3zm74.5 4.3c-37.7-1.2-70.4 44.9-38.9 97c0 0 .7-38.9 19.3-54c17.4 21.4-11.5 76.5 20.3 115.4l15-94.9c31.7 35.4-6.9 103.4 21.5 135l20.2-78c27.9 45.8-6.1 118.1 31.6 156c-1.6-31.6 54.8-165.7-25.8-205.2c-12.7-50.4-39-70.6-63.2-71.3zm107.6 28.9c-22.5-.1-39.8 4-39.8 4c72.2 3.5 69.2 65.4 69.2 65.4c62.4 20.7 43.4 105.5 56 126.8c21.9-81.9-21.1-147.2-21.1-147.2s25 11.2 35.7 54.4c4.5-87.8-57.1-103.2-100-103.4zM215.6 256c1.5 15.5-12.9 37.1-12.9 37.1s4.8 20.2 47.8 11.2c0 0-10.3-7.6-13.2-28.2c-13.8-5.8-21.7-20.1-21.7-20.1zm-32.8 62.3s-3.3 30.8 4.2 63.7c8.1 35.5 18.5-2.6 17.3-32.8c31.5 10.6-4.3 43.2 34.2 72.2l3.9-56.8c33.3 9.9-2.3 64.4 25.4 75.3C288.3 418 291.9 379 271 357c-27.8-29.3-59.7-8.7-88.2-38.7zM296.5 360c15 34 18.8 97-44.7 125.1h134s23-49.5 8.5-79.9l-18.4 41.5c-52.7-13.4-47.2-47-79.4-86.7z"></path></svg></svg>
