<svg xmlns="http://www.w3.org/2000/svg" fill="none" version="1.1" width="550" height="550" viewBox="0 0 550 550"><defs><clipPath id="master_svg0_94_12411"><rect x="0" y="0" width="550" height="550" rx="130"/></clipPath><filter id="master_svg1_94_13025" filterUnits="objectBoundingBox" color-interpolation-filters="sRGB" x="-41.608577728271484" y="-41.608577728271484" width="471.21715545654297" height="468.21715545654297"><feFlood flood-opacity="0" result="BackgroundImageFix"/><feBlend mode="normal" in="SourceGraphic" in2="BackgroundImageFix" result="shape"/><feGaussianBlur stdDeviation="10.402144432067871" result="effect1_foregroundBlur"/></filter><linearGradient x1="0.06779661774635315" y1="0.305084764957428" x2="0.9576271176338196" y2="0.22033895552158356" id="master_svg2_94_09197"><stop offset="0%" stop-color="#C76476" stop-opacity="1"/><stop offset="100%" stop-color="#ECAC98" stop-opacity="1"/></linearGradient><filter id="master_svg3_94_13031" filterUnits="objectBoundingBox" color-interpolation-filters="sRGB" x="0" y="0" width="422.6846618652344" height="117.92642211914062"><feFlood flood-opacity="0" result="BackgroundImageFix"/><feBlend mode="normal" in="SourceGraphic" in2="BackgroundImageFix" result="shape"/><feColorMatrix in="SourceAlpha" type="matrix" result="hardAlpha" values="0 0 0 0 0 0 0 0 0 0 0 0 0 0 0 0 0 0 127 0"/><feOffset dy="0.8807640671730042" dx="1.7615281343460083"/><feGaussianBlur stdDeviation="4.403820037841797"/><feComposite in2="hardAlpha" operator="arithmetic" k2="-1" k3="1"/><feColorMatrix type="matrix" values="0 0 0 0 1 0 0 0 0 1 0 0 0 0 1 0 0 0 0.6000000238418579 0"/><feBlend mode="normal" in2="shape" result="effect1_innerShadow"/><feGaussianBlur in="BackgroundImage" stdDeviation="17.615280151367188"/><feComposite in2="SourceAlpha" operator="in" result="effect2_foregroundBlur"/><feBlend mode="normal" in="SourceGraphic" in2="effect2_foregroundBlur" result="shape"/></filter><linearGradient x1="0.06779661774635315" y1="0.305084764957428" x2="0.9576271176338196" y2="0.22033895552158356" id="master_svg4_94_09197"><stop offset="0%" stop-color="#C76476" stop-opacity="1"/><stop offset="100%" stop-color="#ECAC98" stop-opacity="1"/></linearGradient><filter id="master_svg5_94_13302" filterUnits="objectBoundingBox" color-interpolation-filters="sRGB" x="0" y="0" width="406.2784118652344" height="113.35010528564453"><feFlood flood-opacity="0" result="BackgroundImageFix"/><feBlend mode="normal" in="SourceGraphic" in2="BackgroundImageFix" result="shape"/><feColorMatrix in="SourceAlpha" type="matrix" result="hardAlpha" values="0 0 0 0 0 0 0 0 0 0 0 0 0 0 0 0 0 0 127 0"/><feOffset dy="0.8467139005661011" dx="1.6934278011322021"/><feGaussianBlur stdDeviation="4.233569145202637"/><feComposite in2="hardAlpha" operator="arithmetic" k2="-1" k3="1"/><feColorMatrix type="matrix" values="0 0 0 0 1 0 0 0 0 1 0 0 0 0 1 0 0 0 0.6000000238418579 0"/><feBlend mode="normal" in2="shape" result="effect1_innerShadow"/><feGaussianBlur in="BackgroundImage" stdDeviation="16.934276580810547"/><feComposite in2="SourceAlpha" operator="in" result="effect2_foregroundBlur"/><feBlend mode="normal" in="SourceGraphic" in2="effect2_foregroundBlur" result="shape"/></filter></defs><g clip-path="url(#master_svg0_94_12411)"><rect x="0" y="0" width="550" height="550" rx="130" fill="#FFFFFF" fill-opacity="1"/><g><g transform="matrix(1,0,0,-1,0,940.0086669921875)" filter="url(#master_svg1_94_13025)"><g><g><path d="M82.15514,471.18914768986286C81.519849,471.82497768986286,81,472.75262768986283,81,473.25172768986283C81,473.75083768986286,85.11835,490.43816768986284,90.1514,510.3347676898629C99.9329,549.0033676898629,101.7418,554.2591676898628,108.8792,564.7667676898628C112.3152,569.8247676898628,124.8386,583.2333676898628,126.12610000000001,583.2333676898628C126.5858,583.2333676898628,142.28390000000002,567.9130676898628,161.0119,549.1876676898628C161.0119,549.1876676898628,191.348,518.8559676898628,191.348,518.8559676898628C193.387,516.8170676898628,193.353,513.5018676898628,191.273,511.50556768986286C191.273,511.50556768986286,187.697,508.07446768986284,187.697,508.07446768986284C177.3185,498.11586768986285,168.0553,492.21036768986284,157.0207,488.51596768986286C152.3327,486.94586768986284,85.71469,470.03436768986285,84.21983,470.03436768986285C83.71983,470.03436768986285,82.79116,470.5540556898628,82.15514,471.18914768986286C82.15514,471.18914768986286,82.15514,471.18914768986286,82.15514,471.18914768986286ZM176.0318,565.0453676898628C176.0318,565.0453676898628,145.6663,595.4063676898628,145.6663,595.4063676898628C143.6561,597.4163676898629,143.6566,600.6753676898628,145.6676,602.6843676898628C145.6676,602.6843676898628,158.5737,615.5773676898629,158.5737,615.5773676898629C158.5737,615.5773676898629,295.345,753.0303676898628,295.345,753.0303676898628C295.345,753.0303676898628,316.105,732.2933676898629,329.528,718.8513676898629C343.13,704.8863676898628,364.078,684.6723676898629,364.078,684.6723676898629C364.078,684.6723676898629,227.322,547.1577676898628,227.322,547.1577676898628C218.223,538.2955676898629,210.612,531.0451676898629,210.408,531.0442676898629C210.204,531.0442676898629,194.73399999999998,546.3448676898629,176.0318,565.0453676898628C176.0318,565.0453676898628,176.0318,565.0453676898628,176.0318,565.0453676898628ZM329.528,718.8513676898629C329.528,718.8513676898629,295.345,753.0303676898628,295.345,753.0303676898628C295.345,753.0303676898628,315.55600000000004,773.2463676898628,315.55600000000004,773.2463676898628C326.672,784.3643676898628,336.102,793.4613676898629,336.51099999999997,793.4613676898629C337.478,793.4613676898629,404.527,726.4273676898629,404.527,725.4593676898628C404.527,724.7363676898628,364.078,684.6723676898629,364.078,684.6723676898629C363.942,684.8063676898628,348.142,699.7403676898629,329.528,718.8513676898629C329.528,718.8513676898629,329.528,718.8513676898629,329.528,718.8513676898629ZM386.142,775.4783676898628C386.142,775.4783676898628,355.613,806.0233676898629,355.613,806.0233676898629C353.595,808.0413676898629,353.606,811.3153676898628,355.637,813.3203676898629C355.637,813.3203676898629,365.557,823.1143676898628,365.557,823.1143676898628C380.218,837.5903676898629,384.282,840.5743676898628,393.873,843.9093676898628C399.098,845.7273676898628,400.763,845.9513676898628,408.939,845.9363676898629C416.937,845.9223676898628,418.914,845.6603676898628,424.17,843.9233676898629C438.621,839.1483676898629,449.771,827.9363676898629,454.991,812.9323676898629C456.804,807.7243676898629,457.036,806.0193676898629,457.036,797.8713676898628C457.036,789.7233676898629,456.804,788.0183676898628,454.991,782.8103676898629C451.649,773.2023676898629,448.679,769.1453676898628,434.402,754.6863676898629C427.117,747.3083676898628,420.971,741.2713676898629,420.743,741.2713676898629C420.516,741.2713676898629,404.946,756.6643676898628,386.142,775.4783676898628C386.142,775.4783676898628,386.142,775.4783676898628,386.142,775.4783676898628Z" fill-rule="evenodd" fill="url(#master_svg2_94_09197)" fill-opacity="1"/></g><g transform="matrix(0.6980345249176025,-0.7161360383033752,0.7161996960639954,0.6978216171264648,-526.3772915511165,297.60570206749713)" filter="url(#master_svg3_94_13031)"><rect x="89.52383518218994" y="772.7040405273438" width="422.6846618652344" height="117.92642211914062" rx="11.669075965881348" fill="#D0747E" fill-opacity="0.5"/></g><g><g transform="matrix(0.711031436920166,0.7030869126319885,-0.7032983899116516,0.7109673619270325,595.054907390142,91.9110123430512)"><path d="M185.72524642944336 779.0181865692139C185.72524642944336 773.9169527652057 189.86061350128966 769.7815856933594 194.96184730529785 769.7815856933594L237.04254531860352 769.7815856933594C237.04254531860352 769.7815856933594 237.04254531860352 769.7815856933594 237.04254531860352 769.7815856933594L237.04254531860352 791.2544574737549C237.04254531860352 791.2544574737549 237.04254531860352 791.2544574737549 237.04254531860352 791.2544574737549L194.96184730529785 791.2544574737549C189.86061350128966 791.2544574737549 185.72524642944336 787.1190904019086 185.72524642944336 782.0178565979004Z" fill="#FFFFFF" fill-opacity="1"/></g><g transform="matrix(0.711031436920166,0.7030869126319885,-0.7032983899116516,0.7109673619270325,580.7840184429722,59.84630993407768)"><path d="M217.6045913696289 745.6283512115479C217.6045913696289 740.5271174075397 221.7399584414752 736.3917503356934 226.8411922454834 736.3917503356934L268.92189025878906 736.3917503356934C268.92189025878906 736.3917503356934 268.92189025878906 736.3917503356934 268.92189025878906 736.3917503356934L268.92189025878906 757.8646221160889C268.92189025878906 757.8646221160889 268.92189025878906 757.8646221160889 268.92189025878906 757.8646221160889L226.8411922454834 757.8646221160889C221.7399584414752 757.8646221160889 217.6045913696289 753.7292550442426 217.6045913696289 748.6280212402344Z" fill="#FFFFFF" fill-opacity="1"/></g><g transform="matrix(0.711031436920166,0.7030868530273438,-0.7032983899116516,0.7109673619270325,552.4208404097162,33.76734348030277)"><path d="M235.15372467041016 698.089033126831C235.15372467041016 692.9877993228229 239.28909174225646 688.8524322509766 244.39032554626465 688.8524322509766L306.6080551147461 688.8524322509766C306.6080551147461 688.8524322509766 306.6080551147461 688.8524322509766 306.6080551147461 688.8524322509766L306.6080551147461 710.3253040313721C306.6080551147461 710.3253040313721 306.6080551147461 710.3253040313721 306.6080551147461 710.3253040313721L244.39032554626465 710.3253040313721C239.28909174225646 710.3253040313721 235.15372467041016 706.1899369595258 235.15372467041016 701.0887031555176Z" fill="#FFFFFF" fill-opacity="1"/></g></g></g><g><g transform="matrix(0.711031436920166,0.7030869126319885,-0.7032983303070068,0.7109673619270325,551.714939623429,-8.732431100917665)"><path d="M286.5134696960449 675.9828929901123C286.5134696960449 670.8816591861041 290.6488367678912 666.7462921142578 295.7500705718994 666.7462921142578L337.8307685852051 666.7462921142578C337.8307685852051 666.7462921142578 337.8307685852051 666.7462921142578 337.8307685852051 666.7462921142578L337.8307685852051 688.2191638946533C337.8307685852051 688.2191638946533 337.8307685852051 688.2191638946533 337.8307685852051 688.2191638946533L295.7500705718994 688.2191638946533C290.6488367678912 688.2191638946533 286.5134696960449 684.083796822807 286.5134696960449 678.9825630187988Z" fill="#FFFFFF" fill-opacity="1"/></g><g transform="matrix(0.711031436920166,0.7030869126319885,-0.7032983303070068,0.7109673619270325,537.4435967406016,-40.79710769478402)"><path d="M318.3925552368164 642.5925159454346C318.3925552368164 637.4912821414264 322.5279223086627 633.3559150695801 327.6291561126709 633.3559150695801L369.70985412597656 633.3559150695801C369.70985412597656 633.3559150695801 369.70985412597656 633.3559150695801 369.70985412597656 633.3559150695801L369.70985412597656 654.8287868499756C369.70985412597656 654.8287868499756 369.70985412597656 654.8287868499756 369.70985412597656 654.8287868499756L327.6291561126709 654.8287868499756C322.5279223086627 654.8287868499756 318.3925552368164 650.6934197781293 318.3925552368164 645.5921859741211Z" fill="#FFFFFF" fill-opacity="1"/></g><g transform="matrix(0.711031436920166,0.7030868530273438,-0.7032983303070068,0.7109673619270325,509.08110819359536,-66.87599913502663)"><path d="M335.9419479370117 595.0540676116943C335.9419479370117 589.9528338076861 340.077315008858 585.8174667358398 345.1785488128662 585.8174667358398L407.39627838134766 585.8174667358398C407.39627838134766 585.8174667358398 407.39627838134766 585.8174667358398 407.39627838134766 585.8174667358398L407.39627838134766 607.2903385162354C407.39627838134766 607.2903385162354 407.39627838134766 607.2903385162354 407.39627838134766 607.2903385162354L345.1785488128662 607.2903385162354C340.077315008858 607.2903385162354 335.9419479370117 603.154971444389 335.9419479370117 598.0537376403809Z" fill="#FFFFFF" fill-opacity="1"/></g></g><g><g transform="matrix(0.711031436920166,0.7030869126319885,-0.7032983303070068,0.7109673619270325,512.4855182071615,-103.68801877377018)"><path d="M382.4363212585449 580.7912693023682C382.4363212585449 575.69003549836 386.5716883303912 571.5546684265137 391.6729221343994 571.5546684265137L433.7536201477051 571.5546684265137C433.7536201477051 571.5546684265137 433.7536201477051 571.5546684265137 433.7536201477051 571.5546684265137L433.7536201477051 593.0275402069092C433.7536201477051 593.0275402069092 433.7536201477051 593.0275402069092 433.7536201477051 593.0275402069092L391.6729221343994 593.0275402069092C386.5716883303912 593.0275402069092 382.4363212585449 588.8921731350629 382.4363212585449 583.7909393310547Z" fill="#FFFFFF" fill-opacity="1"/></g><g transform="matrix(0.711031436920166,0.7030869126319885,-0.7032983303070068,0.7109673619270325,498.21816206947733,-135.75105694562353)"><path d="M414.3154067993164 547.4065608978271C414.3154067993164 542.305327093819 418.4507738711627 538.1699600219727 423.5520076751709 538.1699600219727L465.63270568847656 538.1699600219727C465.63270568847656 538.1699600219727 465.63270568847656 538.1699600219727 465.63270568847656 538.1699600219727L465.63270568847656 559.6428318023682C465.63270568847656 559.6428318023682 465.63270568847656 559.6428318023682 465.63270568847656 559.6428318023682L423.5520076751709 559.6428318023682C418.4507738711627 559.6428318023682 414.3154067993164 555.5074647305219 414.3154067993164 550.4062309265137Z" fill="#FFFFFF" fill-opacity="1"/></g></g></g><g transform="matrix(1,0,0,-1,0,900.0086669921875)"><g><g><path d="M89.11048,451.14298752588866C88.499752,451.75404752588867,88,452.6455475258887,88,453.1252075258887C88,453.60486752588866,91.95914,469.6420975258887,96.79761,488.7634975258887C106.201,525.9254975258887,107.9399,530.9764975258887,114.8014,541.0747975258887C118.1046,545.9355975258886,130.1438,558.8221975258887,131.38150000000002,558.8221975258887C131.8234,558.8221975258887,146.9147,544.0983975258887,164.9187,526.1025975258887C164.9187,526.1025975258887,194.082,496.9525975258887,194.082,496.9525975258887C196.042,494.99319752588866,196.01,491.8071975258887,194.01,489.8885975258887C194.01,489.8885975258887,190.572,486.5911975258887,190.572,486.5911975258887C180.59480000000002,477.02059752588866,171.68970000000002,471.3451975258887,161.0817,467.79479752588867C156.575,466.2857975258887,92.53242,450.0331975258887,91.09535,450.0331975258887C90.61469,450.0331975258887,89.72191,450.5326375258887,89.11048,451.14298752588866C89.11048,451.14298752588866,89.11048,451.14298752588866,89.11048,451.14298752588866ZM179.3579,541.3423975258887C179.3579,541.3423975258887,150.1663,570.5201975258886,150.1663,570.5201975258886C148.2339,572.4521975258887,148.2343,575.5841975258887,150.1676,577.5151975258887C150.1676,577.5151975258887,162.5747,589.9051975258888,162.5747,589.9051975258888C162.5747,589.9051975258888,294.058,722.0031975258887,294.058,722.0031975258887C294.058,722.0031975258887,314.01599999999996,702.0741975258886,326.91999999999996,689.1561975258887C339.996,675.7351975258887,360.134,656.3081975258887,360.134,656.3081975258887C360.134,656.3081975258887,228.665,524.1517975258887,228.665,524.1517975258887C219.918,515.6348975258886,212.601,508.6669975258887,212.405,508.6660975258887C212.209,508.6660975258887,197.338,523.3705975258887,179.3579,541.3423975258887C179.3579,541.3423975258887,179.3579,541.3423975258887,179.3579,541.3423975258887ZM326.91999999999996,689.1561975258887C326.91999999999996,689.1561975258887,294.058,722.0031975258887,294.058,722.0031975258887C294.058,722.0031975258887,313.488,741.4311975258887,313.488,741.4311975258887C324.175,752.1161975258888,333.24,760.8591975258887,333.63300000000004,760.8591975258887C334.563,760.8591975258887,399.019,696.4361975258887,399.019,695.5071975258886C399.019,694.8121975258887,360.134,656.3081975258887,360.134,656.3081975258887C360.003,656.4371975258887,344.815,670.7901975258887,326.91999999999996,689.1561975258887C326.91999999999996,689.1561975258887,326.91999999999996,689.1561975258887,326.91999999999996,689.1561975258887ZM381.345,743.5761975258887C381.345,743.5761975258887,351.996,772.9311975258887,351.996,772.9311975258887C350.057,774.8711975258886,350.067,778.0171975258886,352.02,779.9441975258887C352.02,779.9441975258887,361.556,789.3571975258888,361.556,789.3571975258888C375.65,803.2691975258887,379.557,806.1371975258887,388.777,809.3421975258887C393.801,811.0891975258887,395.401,811.3041975258886,403.261,811.2901975258887C410.95,811.2761975258886,412.85,811.0251975258886,417.903,809.3551975258887C431.796,804.7661975258886,442.514,793.9911975258888,447.533,779.5721975258887C449.275,774.5661975258887,449.498,772.9281975258887,449.498,765.0971975258888C449.498,757.2661975258886,449.275,755.6281975258887,447.533,750.6231975258886C444.319,741.3891975258887,441.464,737.4901975258887,427.74,723.5951975258887C420.736,716.5041975258887,414.828,710.7031975258888,414.608,710.7031975258888C414.39,710.7031975258888,399.422,725.4961975258886,381.345,743.5761975258887C381.345,743.5761975258887,381.345,743.5761975258887,381.345,743.5761975258887Z" fill-rule="evenodd" fill="url(#master_svg4_94_09197)" fill-opacity="1"/></g><g transform="matrix(0.6980345249176025,-0.7160267233848572,0.7163090109825134,0.6978216171264648,-501.6735244341835,292.764836849341)" filter="url(#master_svg5_94_13302)"><rect x="96.19430541992188" y="740.9105224609375" width="406.2784118652344" height="113.35010528564453" rx="11.217952728271484" fill="#D0747E" fill-opacity="0.5"/></g><g><g transform="matrix(0.7111415863037109,0.7030869126319885,-0.7032983899116516,0.7108571529388428,573.6067327011237,80.76086327537769)"><path d="M188.6765832901001 746.9814682006836C188.6765832901001 742.0774465957712 192.65207828675028 738.1019515991211 197.5560998916626 738.1019515991211L238.00232028961182 738.1019515991211C238.00232028961182 738.1019515991211 238.00232028961182 738.1019515991211 238.00232028961182 738.1019515991211L238.00232028961182 758.7414169311523C238.00232028961182 758.7414169311523 238.00232028961182 758.7414169311523 238.00232028961182 758.7414169311523L197.5560998916626 758.7414169311523C192.65207828675028 758.7414169311523 188.6765832901001 754.7659219345022 188.6765832901001 749.8619003295898Z" fill="#FFFFFF" fill-opacity="1"/></g><g transform="matrix(0.7111415863037109,0.7030869126319885,-0.7032983899116516,0.7108571529388428,559.8912493748512,49.935145929343435)"><path d="M219.32347869873047 714.8925323486328C219.32347869873047 709.9885107437204 223.29897369538065 706.0130157470703 228.20299530029297 706.0130157470703L268.6492156982422 706.0130157470703C268.6492156982422 706.0130157470703 268.6492156982422 706.0130157470703 268.6492156982422 706.0130157470703L268.6492156982422 726.6524810791016C268.6492156982422 726.6524810791016 268.6492156982422 726.6524810791016 268.6492156982422 726.6524810791016L228.20299530029297 726.6524810791016C223.29897369538065 726.6524810791016 219.32347869873047 722.6769860824514 219.32347869873047 717.7729644775391Z" fill="#FFFFFF" fill-opacity="1"/></g><g transform="matrix(0.7111415863037109,0.7030868530273438,-0.7032983899116516,0.7108571529388428,532.6328012151798,24.863493833185203)"><path d="M236.19416427612305 669.2053985595703C236.19416427612305 664.3013769546579 240.16965927277323 660.3258819580078 245.07368087768555 660.3258819580078L304.87543869018555 660.3258819580078C304.87543869018555 660.3258819580078 304.87543869018555 660.3258819580078 304.87543869018555 660.3258819580078L304.87543869018555 680.9653472900391C304.87543869018555 680.9653472900391 304.87543869018555 680.9653472900391 304.87543869018555 680.9653472900391L245.07368087768555 680.9653472900391C240.16965927277323 680.9653472900391 236.19416427612305 676.9898522933889 236.19416427612305 672.0858306884766Z" fill="#FFFFFF" fill-opacity="1"/></g></g></g><g><g transform="matrix(0.7111415863037109,0.7030869126319885,-0.7032983303070068,0.7108571529388428,531.9534278606934,-15.99366902545762)"><path d="M285.5683526992798 647.9605255126953C285.5683526992798 643.0565039077829 289.54384769592997 639.0810089111328 294.4478693008423 639.0810089111328L334.8940896987915 639.0810089111328C334.8940896987915 639.0810089111328 334.8940896987915 639.0810089111328 334.8940896987915 639.0810089111328L334.8940896987915 659.7204742431641C334.8940896987915 659.7204742431641 334.8940896987915 659.7204742431641 334.8940896987915 659.7204742431641L294.4478693008423 659.7204742431641C289.54384769592997 659.7204742431641 285.5683526992798 655.7449792465139 285.5683526992798 650.8409576416016Z" fill="#FFFFFF" fill-opacity="1"/></g><g transform="matrix(0.7111415863037109,0.7030869126319885,-0.7032983303070068,0.7108571529388428,518.2375115337027,-46.819358259263936)"><path d="M316.2149963378906 615.8710746765137C316.2149963378906 610.9670530716013 320.1904913345408 606.9915580749512 325.0945129394531 606.9915580749512L365.54073333740234 606.9915580749512C365.54073333740234 606.9915580749512 365.54073333740234 606.9915580749512 365.54073333740234 606.9915580749512L365.54073333740234 627.6310234069824C365.54073333740234 627.6310234069824 365.54073333740234 627.6310234069824 365.54073333740234 627.6310234069824L325.0945129394531 627.6310234069824C320.1904913345408 627.6310234069824 316.2149963378906 623.6555284103323 316.2149963378906 618.7515068054199Z" fill="#FFFFFF" fill-opacity="1"/></g><g transform="matrix(0.7111415863037109,0.7030868530273438,-0.7032983303070068,0.7108571529388428,490.97972526975536,-71.89093735902316)"><path d="M333.08592987060547 570.1847763061523C333.08592987060547 565.28075470124 337.06142486725565 561.3052597045898 341.96544647216797 561.3052597045898L401.76720428466797 561.3052597045898C401.76720428466797 561.3052597045898 401.76720428466797 561.3052597045898 401.76720428466797 561.3052597045898L401.76720428466797 581.9447250366211C401.76720428466797 581.9447250366211 401.76720428466797 581.9447250366211 401.76720428466797 581.9447250366211L341.96544647216797 581.9447250366211C337.06142486725565 581.9447250366211 333.08592987060547 577.969230039971 333.08592987060547 573.0652084350586Z" fill="#FFFFFF" fill-opacity="1"/></g></g><g><g transform="matrix(0.7111415863037109,0.7030869126319885,-0.7032983303070068,0.7108571529388428,494.2506222486254,-107.28008462175558)"><path d="M377.78284549713135 556.4776725769043C377.78284549713135 551.5736509719919 381.75834049378153 547.5981559753418 386.66236209869385 547.5981559753418L427.10858249664307 547.5981559753418C427.10858249664307 547.5981559753418 427.10858249664307 547.5981559753418 427.10858249664307 547.5981559753418L427.10858249664307 568.237621307373C427.10858249664307 568.237621307373 427.10858249664307 568.237621307373 427.10858249664307 568.237621307373L386.66236209869385 568.237621307373C381.75834049378153 568.237621307373 377.78284549713135 564.2621263107229 377.78284549713135 559.3581047058105Z" fill="#FFFFFF" fill-opacity="1"/></g><g transform="matrix(0.7111415863037109,0.7030869126319885,-0.7032983303070068,0.7108571529388428,480.5385370603053,-138.10419878237462)"><path d="M408.4294891357422 524.393669128418C408.4294891357422 519.4896475235056 412.40498413239237 515.5141525268555 417.3090057373047 515.5141525268555L457.7552261352539 515.5141525268555C457.7552261352539 515.5141525268555 457.7552261352539 515.5141525268555 457.7552261352539 515.5141525268555L457.7552261352539 536.1536178588867C457.7552261352539 536.1536178588867 457.7552261352539 536.1536178588867 457.7552261352539 536.1536178588867L417.3090057373047 536.1536178588867C412.40498413239237 536.1536178588867 408.4294891357422 532.1781228622366 408.4294891357422 527.2741012573242Z" fill="#FFFFFF" fill-opacity="1"/></g></g></g></g></g></svg>
